<?xml version="1.0" standalone="no"?>
<!DOCTYPE svg PUBLIC "-//W3C//DTD SVG 20010904//EN"
 "http://www.w3.org/TR/2001/REC-SVG-20010904/DTD/svg10.dtd">
<svg version="1.0" xmlns="http://www.w3.org/2000/svg"
 width="1280.000000pt" height="1280.000000pt" viewBox="0 0 1280.000000 1280.000000"
 preserveAspectRatio="xMidYMid meet">
<metadata>
Created by potrace 1.15, written by Peter Selinger 2001-2017
</metadata>
<g transform="translate(0.000000,1280.000000) scale(0.100000,-0.100000)"
fill="#e91e63" stroke="none">
<path d="M3325 12639 c-835 -47 -1531 -346 -2104 -904 -470 -457 -756 -956
-907 -1583 -130 -538 -140 -1167 -28 -1762 112 -594 348 -1166 695 -1687 129
-194 180 -259 389 -502 102 -117 262 -302 355 -411 472 -547 1187 -1383 1232
-1440 235 -304 496 -792 641 -1200 294 -827 342 -1655 161 -2792 -11 -68 -10
-79 4 -102 27 -41 55 -41 153 -3 49 19 109 40 134 47 51 13 242 112 820 423
868 467 2019 1177 2742 1692 73 51 157 111 187 132 135 95 706 526 891 673
571 456 975 815 1461 1300 356 355 523 537 789 855 130 156 398 505 499 650
638 921 1020 1818 1150 2706 166 1128 -74 2020 -745 2769 -341 382 -796 707
-1254 898 -589 244 -1302 311 -1935 181 -877 -181 -1595 -751 -2115 -1677 -47
-83 -87 -151 -90 -152 -3 0 -16 30 -29 68 -69 197 -237 488 -398 687 -94 116
-291 311 -413 408 -467 372 -1043 620 -1629 701 -98 14 -458 38 -501 34 -8 0
-78 -5 -155 -9z"/>
</g>
</svg>
